<?xml version="1.0" encoding="utf-8" standalone="no"?>
<!DOCTYPE svg PUBLIC "-//W3C//DTD SVG 1.1//EN"
  "http://www.w3.org/Graphics/SVG/1.1/DTD/svg11.dtd">
<svg xmlns:xlink="http://www.w3.org/1999/xlink" width="864pt" height="360pt" viewBox="0 0 864 360" xmlns="http://www.w3.org/2000/svg" version="1.1">
 <metadata>
  <rdf:RDF xmlns:dc="http://purl.org/dc/elements/1.1/" xmlns:cc="http://creativecommons.org/ns#" xmlns:rdf="http://www.w3.org/1999/02/22-rdf-syntax-ns#">
   <cc:Work>
    <dc:type rdf:resource="http://purl.org/dc/dcmitype/StillImage"/>
    <dc:date>2025-11-10T23:52:21.482788</dc:date>
    <dc:format>image/svg+xml</dc:format>
    <dc:creator>
     <cc:Agent>
      <dc:title>Matplotlib v3.6.3, https://matplotlib.org/</dc:title>
     </cc:Agent>
    </dc:creator>
   </cc:Work>
  </rdf:RDF>
 </metadata>
 <defs>
  <style type="text/css">*{stroke-linejoin: round; stroke-linecap: butt}</style>
 </defs>
 <g id="figure_1">
  <g id="patch_1">
   <path d="M 0 360 
L 864 360 
L 864 0 
L 0 0 
z
" style="fill: #ffffff"/>
  </g>
  <g id="axes_1">
   <g id="patch_2">
    <path d="M 44.884286 318.04 
L 826.502143 318.04 
L 826.502143 25.44 
L 44.884286 25.44 
z
" style="fill: #ffffff"/>
   </g>
   <g id="matplotlib.axis_1">
    <g id="xtick_1">
     <g id="line2d_1">
      <defs>
       <path id="m5852982ba2" d="M 0 0 
L 0 3.5 
" style="stroke: #000000; stroke-width: 0.8"/>
      </defs>
      <g>
       <use xlink:href="#m5852982ba2" x="82.104184" y="318.04" style="stroke: #000000; stroke-width: 0.8"/>
      </g>
     </g>
     <g id="text_1">
      <!-- 0 -->
      <g transform="translate(78.922934 332.638438) scale(0.1 -0.1)">
       <defs>
        <path id="DejaVuSans-30" d="M 2034 4250 
Q 1547 4250 1301 3770 
Q 1056 3291 1056 2328 
Q 1056 1369 1301 889 
Q 1547 409 2034 409 
Q 2525 409 2770 889 
Q 3016 1369 3016 2328 
Q 3016 3291 2770 3770 
Q 2525 4250 2034 4250 
z
M 2034 4750 
Q 2819 4750 3233 4129 
Q 3647 3509 3647 2328 
Q 3647 1150 3233 529 
Q 2819 -91 2034 -91 
Q 1250 -91 836 529 
Q 422 1150 422 2328 
Q 422 3509 836 4129 
Q 1250 4750 2034 4750 
z
" transform="scale(0.015625)"/>
       </defs>
       <use xlink:href="#DejaVuSans-30"/>
      </g>
     </g>
    </g>
    <g id="xtick_2">
     <g id="line2d_2">
      <g>
       <use xlink:href="#m5852982ba2" x="175.153929" y="318.04" style="stroke: #000000; stroke-width: 0.8"/>
      </g>
     </g>
     <g id="text_2">
      <!-- 10 -->
      <g transform="translate(168.791429 332.638438) scale(0.1 -0.1)">
       <defs>
        <path id="DejaVuSans-31" d="M 794 531 
L 1825 531 
L 1825 4091 
L 703 3866 
L 703 4441 
L 1819 4666 
L 2450 4666 
L 2450 531 
L 3481 531 
L 3481 0 
L 794 0 
L 794 531 
z
" transform="scale(0.015625)"/>
       </defs>
       <use xlink:href="#DejaVuSans-31"/>
       <use xlink:href="#DejaVuSans-30" x="63.623047"/>
      </g>
     </g>
    </g>
    <g id="xtick_3">
     <g id="line2d_3">
      <g>
       <use xlink:href="#m5852982ba2" x="268.203673" y="318.04" style="stroke: #000000; stroke-width: 0.8"/>
      </g>
     </g>
     <g id="text_3">
      <!-- 20 -->
      <g transform="translate(261.841173 332.638438) scale(0.1 -0.1)">
       <defs>
        <path id="DejaVuSans-32" d="M 1228 531 
L 3431 531 
L 3431 0 
L 469 0 
L 469 531 
Q 828 903 1448 1529 
Q 2069 2156 2228 2338 
Q 2531 2678 2651 2914 
Q 2772 3150 2772 3378 
Q 2772 3750 2511 3984 
Q 2250 4219 1831 4219 
Q 1534 4219 1204 4116 
Q 875 4013 500 3803 
L 500 4441 
Q 881 4594 1212 4672 
Q 1544 4750 1819 4750 
Q 2544 4750 2975 4387 
Q 3406 4025 3406 3419 
Q 3406 3131 3298 2873 
Q 3191 2616 2906 2266 
Q 2828 2175 2409 1742 
Q 1991 1309 1228 531 
z
" transform="scale(0.015625)"/>
       </defs>
       <use xlink:href="#DejaVuSans-32"/>
       <use xlink:href="#DejaVuSans-30" x="63.623047"/>
      </g>
     </g>
    </g>
    <g id="xtick_4">
     <g id="line2d_4">
      <g>
       <use xlink:href="#m5852982ba2" x="361.253418" y="318.04" style="stroke: #000000; stroke-width: 0.8"/>
      </g>
     </g>
     <g id="text_4">
      <!-- 30 -->
      <g transform="translate(354.890918 332.638438) scale(0.1 -0.1)">
       <defs>
        <path id="DejaVuSans-33" d="M 2597 2516 
Q 3050 2419 3304 2112 
Q 3559 1806 3559 1356 
Q 3559 666 3084 287 
Q 2609 -91 1734 -91 
Q 1441 -91 1130 -33 
Q 819 25 488 141 
L 488 750 
Q 750 597 1062 519 
Q 1375 441 1716 441 
Q 2309 441 2620 675 
Q 2931 909 2931 1356 
Q 2931 1769 2642 2001 
Q 2353 2234 1838 2234 
L 1294 2234 
L 1294 2753 
L 1863 2753 
Q 2328 2753 2575 2939 
Q 2822 3125 2822 3475 
Q 2822 3834 2567 4026 
Q 2313 4219 1838 4219 
Q 1578 4219 1281 4162 
Q 984 4106 628 3988 
L 628 4550 
Q 988 4650 1302 4700 
Q 1616 4750 1894 4750 
Q 2613 4750 3031 4423 
Q 3450 4097 3450 3541 
Q 3450 3153 3228 2886 
Q 3006 2619 2597 2516 
z
" transform="scale(0.015625)"/>
       </defs>
       <use xlink:href="#DejaVuSans-33"/>
       <use xlink:href="#DejaVuSans-30" x="63.623047"/>
      </g>
     </g>
    </g>
    <g id="xtick_5">
     <g id="line2d_5">
      <g>
       <use xlink:href="#m5852982ba2" x="454.303163" y="318.04" style="stroke: #000000; stroke-width: 0.8"/>
      </g>
     </g>
     <g id="text_5">
      <!-- 40 -->
      <g transform="translate(447.940663 332.638438) scale(0.1 -0.1)">
       <defs>
        <path id="DejaVuSans-34" d="M 2419 4116 
L 825 1625 
L 2419 1625 
L 2419 4116 
z
M 2253 4666 
L 3047 4666 
L 3047 1625 
L 3713 1625 
L 3713 1100 
L 3047 1100 
L 3047 0 
L 2419 0 
L 2419 1100 
L 313 1100 
L 313 1709 
L 2253 4666 
z
" transform="scale(0.015625)"/>
       </defs>
       <use xlink:href="#DejaVuSans-34"/>
       <use xlink:href="#DejaVuSans-30" x="63.623047"/>
      </g>
     </g>
    </g>
    <g id="xtick_6">
     <g id="line2d_6">
      <g>
       <use xlink:href="#m5852982ba2" x="547.352908" y="318.04" style="stroke: #000000; stroke-width: 0.8"/>
      </g>
     </g>
     <g id="text_6">
      <!-- 50 -->
      <g transform="translate(540.990408 332.638438) scale(0.1 -0.1)">
       <defs>
        <path id="DejaVuSans-35" d="M 691 4666 
L 3169 4666 
L 3169 4134 
L 1269 4134 
L 1269 2991 
Q 1406 3038 1543 3061 
Q 1681 3084 1819 3084 
Q 2600 3084 3056 2656 
Q 3513 2228 3513 1497 
Q 3513 744 3044 326 
Q 2575 -91 1722 -91 
Q 1428 -91 1123 -41 
Q 819 9 494 109 
L 494 744 
Q 775 591 1075 516 
Q 1375 441 1709 441 
Q 2250 441 2565 725 
Q 2881 1009 2881 1497 
Q 2881 1984 2565 2268 
Q 2250 2553 1709 2553 
Q 1456 2553 1204 2497 
Q 953 2441 691 2322 
L 691 4666 
z
" transform="scale(0.015625)"/>
       </defs>
       <use xlink:href="#DejaVuSans-35"/>
       <use xlink:href="#DejaVuSans-30" x="63.623047"/>
      </g>
     </g>
    </g>
    <g id="xtick_7">
     <g id="line2d_7">
      <g>
       <use xlink:href="#m5852982ba2" x="640.402653" y="318.04" style="stroke: #000000; stroke-width: 0.8"/>
      </g>
     </g>
     <g id="text_7">
      <!-- 60 -->
      <g transform="translate(634.040153 332.638438) scale(0.1 -0.1)">
       <defs>
        <path id="DejaVuSans-36" d="M 2113 2584 
Q 1688 2584 1439 2293 
Q 1191 2003 1191 1497 
Q 1191 994 1439 701 
Q 1688 409 2113 409 
Q 2538 409 2786 701 
Q 3034 994 3034 1497 
Q 3034 2003 2786 2293 
Q 2538 2584 2113 2584 
z
M 3366 4563 
L 3366 3988 
Q 3128 4100 2886 4159 
Q 2644 4219 2406 4219 
Q 1781 4219 1451 3797 
Q 1122 3375 1075 2522 
Q 1259 2794 1537 2939 
Q 1816 3084 2150 3084 
Q 2853 3084 3261 2657 
Q 3669 2231 3669 1497 
Q 3669 778 3244 343 
Q 2819 -91 2113 -91 
Q 1303 -91 875 529 
Q 447 1150 447 2328 
Q 447 3434 972 4092 
Q 1497 4750 2381 4750 
Q 2619 4750 2861 4703 
Q 3103 4656 3366 4563 
z
" transform="scale(0.015625)"/>
       </defs>
       <use xlink:href="#DejaVuSans-36"/>
       <use xlink:href="#DejaVuSans-30" x="63.623047"/>
      </g>
     </g>
    </g>
    <g id="xtick_8">
     <g id="line2d_8">
      <g>
       <use xlink:href="#m5852982ba2" x="733.452398" y="318.04" style="stroke: #000000; stroke-width: 0.8"/>
      </g>
     </g>
     <g id="text_8">
      <!-- 70 -->
      <g transform="translate(727.089898 332.638438) scale(0.1 -0.1)">
       <defs>
        <path id="DejaVuSans-37" d="M 525 4666 
L 3525 4666 
L 3525 4397 
L 1831 0 
L 1172 0 
L 2766 4134 
L 525 4134 
L 525 4666 
z
" transform="scale(0.015625)"/>
       </defs>
       <use xlink:href="#DejaVuSans-37"/>
       <use xlink:href="#DejaVuSans-30" x="63.623047"/>
      </g>
     </g>
    </g>
    <g id="xtick_9">
     <g id="line2d_9">
      <g>
       <use xlink:href="#m5852982ba2" x="826.502143" y="318.04" style="stroke: #000000; stroke-width: 0.8"/>
      </g>
     </g>
     <g id="text_9">
      <!-- 80 -->
      <g transform="translate(820.139643 332.638438) scale(0.1 -0.1)">
       <defs>
        <path id="DejaVuSans-38" d="M 2034 2216 
Q 1584 2216 1326 1975 
Q 1069 1734 1069 1313 
Q 1069 891 1326 650 
Q 1584 409 2034 409 
Q 2484 409 2743 651 
Q 3003 894 3003 1313 
Q 3003 1734 2745 1975 
Q 2488 2216 2034 2216 
z
M 1403 2484 
Q 997 2584 770 2862 
Q 544 3141 544 3541 
Q 544 4100 942 4425 
Q 1341 4750 2034 4750 
Q 2731 4750 3128 4425 
Q 3525 4100 3525 3541 
Q 3525 3141 3298 2862 
Q 3072 2584 2669 2484 
Q 3125 2378 3379 2068 
Q 3634 1759 3634 1313 
Q 3634 634 3220 271 
Q 2806 -91 2034 -91 
Q 1263 -91 848 271 
Q 434 634 434 1313 
Q 434 1759 690 2068 
Q 947 2378 1403 2484 
z
M 1172 3481 
Q 1172 3119 1398 2916 
Q 1625 2713 2034 2713 
Q 2441 2713 2670 2916 
Q 2900 3119 2900 3481 
Q 2900 3844 2670 4047 
Q 2441 4250 2034 4250 
Q 1625 4250 1398 4047 
Q 1172 3844 1172 3481 
z
" transform="scale(0.015625)"/>
       </defs>
       <use xlink:href="#DejaVuSans-38"/>
       <use xlink:href="#DejaVuSans-30" x="63.623047"/>
      </g>
     </g>
    </g>
    <g id="text_10">
     <!-- Hours from fast start -->
     <g transform="translate(383.611183 346.316563) scale(0.1 -0.1)">
      <defs>
       <path id="DejaVuSans-48" d="M 628 4666 
L 1259 4666 
L 1259 2753 
L 3553 2753 
L 3553 4666 
L 4184 4666 
L 4184 0 
L 3553 0 
L 3553 2222 
L 1259 2222 
L 1259 0 
L 628 0 
L 628 4666 
z
" transform="scale(0.015625)"/>
       <path id="DejaVuSans-6f" d="M 1959 3097 
Q 1497 3097 1228 2736 
Q 959 2375 959 1747 
Q 959 1119 1226 758 
Q 1494 397 1959 397 
Q 2419 397 2687 759 
Q 2956 1122 2956 1747 
Q 2956 2369 2687 2733 
Q 2419 3097 1959 3097 
z
M 1959 3584 
Q 2709 3584 3137 3096 
Q 3566 2609 3566 1747 
Q 3566 888 3137 398 
Q 2709 -91 1959 -91 
Q 1206 -91 779 398 
Q 353 888 353 1747 
Q 353 2609 779 3096 
Q 1206 3584 1959 3584 
z
" transform="scale(0.015625)"/>
       <path id="DejaVuSans-75" d="M 544 1381 
L 544 3500 
L 1119 3500 
L 1119 1403 
Q 1119 906 1312 657 
Q 1506 409 1894 409 
Q 2359 409 2629 706 
Q 2900 1003 2900 1516 
L 2900 3500 
L 3475 3500 
L 3475 0 
L 2900 0 
L 2900 538 
Q 2691 219 2414 64 
Q 2138 -91 1772 -91 
Q 1169 -91 856 284 
Q 544 659 544 1381 
z
M 1991 3584 
L 1991 3584 
z
" transform="scale(0.015625)"/>
       <path id="DejaVuSans-72" d="M 2631 2963 
Q 2534 3019 2420 3045 
Q 2306 3072 2169 3072 
Q 1681 3072 1420 2755 
Q 1159 2438 1159 1844 
L 1159 0 
L 581 0 
L 581 3500 
L 1159 3500 
L 1159 2956 
Q 1341 3275 1631 3429 
Q 1922 3584 2338 3584 
Q 2397 3584 2469 3576 
Q 2541 3569 2628 3553 
L 2631 2963 
z
" transform="scale(0.015625)"/>
       <path id="DejaVuSans-73" d="M 2834 3397 
L 2834 2853 
Q 2591 2978 2328 3040 
Q 2066 3103 1784 3103 
Q 1356 3103 1142 2972 
Q 928 2841 928 2578 
Q 928 2378 1081 2264 
Q 1234 2150 1697 2047 
L 1894 2003 
Q 2506 1872 2764 1633 
Q 3022 1394 3022 966 
Q 3022 478 2636 193 
Q 2250 -91 1575 -91 
Q 1294 -91 989 -36 
Q 684 19 347 128 
L 347 722 
Q 666 556 975 473 
Q 1284 391 1588 391 
Q 1994 391 2212 530 
Q 2431 669 2431 922 
Q 2431 1156 2273 1281 
Q 2116 1406 1581 1522 
L 1381 1569 
Q 847 1681 609 1914 
Q 372 2147 372 2553 
Q 372 3047 722 3315 
Q 1072 3584 1716 3584 
Q 2034 3584 2315 3537 
Q 2597 3491 2834 3397 
z
" transform="scale(0.015625)"/>
       <path id="DejaVuSans-20" transform="scale(0.015625)"/>
       <path id="DejaVuSans-66" d="M 2375 4863 
L 2375 4384 
L 1825 4384 
Q 1516 4384 1395 4259 
Q 1275 4134 1275 3809 
L 1275 3500 
L 2222 3500 
L 2222 3053 
L 1275 3053 
L 1275 0 
L 697 0 
L 697 3053 
L 147 3053 
L 147 3500 
L 697 3500 
L 697 3744 
Q 697 4328 969 4595 
Q 1241 4863 1831 4863 
L 2375 4863 
z
" transform="scale(0.015625)"/>
       <path id="DejaVuSans-6d" d="M 3328 2828 
Q 3544 3216 3844 3400 
Q 4144 3584 4550 3584 
Q 5097 3584 5394 3201 
Q 5691 2819 5691 2113 
L 5691 0 
L 5113 0 
L 5113 2094 
Q 5113 2597 4934 2840 
Q 4756 3084 4391 3084 
Q 3944 3084 3684 2787 
Q 3425 2491 3425 1978 
L 3425 0 
L 2847 0 
L 2847 2094 
Q 2847 2600 2669 2842 
Q 2491 3084 2119 3084 
Q 1678 3084 1418 2786 
Q 1159 2488 1159 1978 
L 1159 0 
L 581 0 
L 581 3500 
L 1159 3500 
L 1159 2956 
Q 1356 3278 1631 3431 
Q 1906 3584 2284 3584 
Q 2666 3584 2933 3390 
Q 3200 3197 3328 2828 
z
" transform="scale(0.015625)"/>
       <path id="DejaVuSans-61" d="M 2194 1759 
Q 1497 1759 1228 1600 
Q 959 1441 959 1056 
Q 959 750 1161 570 
Q 1363 391 1709 391 
Q 2188 391 2477 730 
Q 2766 1069 2766 1631 
L 2766 1759 
L 2194 1759 
z
M 3341 1997 
L 3341 0 
L 2766 0 
L 2766 531 
Q 2569 213 2275 61 
Q 1981 -91 1556 -91 
Q 1019 -91 701 211 
Q 384 513 384 1019 
Q 384 1609 779 1909 
Q 1175 2209 1959 2209 
L 2766 2209 
L 2766 2266 
Q 2766 2663 2505 2880 
Q 2244 3097 1772 3097 
Q 1472 3097 1187 3025 
Q 903 2953 641 2809 
L 641 3341 
Q 956 3463 1253 3523 
Q 1550 3584 1831 3584 
Q 2591 3584 2966 3190 
Q 3341 2797 3341 1997 
z
" transform="scale(0.015625)"/>
       <path id="DejaVuSans-74" d="M 1172 4494 
L 1172 3500 
L 2356 3500 
L 2356 3053 
L 1172 3053 
L 1172 1153 
Q 1172 725 1289 603 
Q 1406 481 1766 481 
L 2356 481 
L 2356 0 
L 1766 0 
Q 1100 0 847 248 
Q 594 497 594 1153 
L 594 3053 
L 172 3053 
L 172 3500 
L 594 3500 
L 594 4494 
L 1172 4494 
z
" transform="scale(0.015625)"/>
      </defs>
      <use xlink:href="#DejaVuSans-48"/>
      <use xlink:href="#DejaVuSans-6f" x="75.195312"/>
      <use xlink:href="#DejaVuSans-75" x="136.376953"/>
      <use xlink:href="#DejaVuSans-72" x="199.755859"/>
      <use xlink:href="#DejaVuSans-73" x="240.869141"/>
      <use xlink:href="#DejaVuSans-20" x="292.96875"/>
      <use xlink:href="#DejaVuSans-66" x="324.755859"/>
      <use xlink:href="#DejaVuSans-72" x="359.960938"/>
      <use xlink:href="#DejaVuSans-6f" x="398.824219"/>
      <use xlink:href="#DejaVuSans-6d" x="460.005859"/>
      <use xlink:href="#DejaVuSans-20" x="557.417969"/>
      <use xlink:href="#DejaVuSans-66" x="589.205078"/>
      <use xlink:href="#DejaVuSans-61" x="624.410156"/>
      <use xlink:href="#DejaVuSans-73" x="685.689453"/>
      <use xlink:href="#DejaVuSans-74" x="737.789062"/>
      <use xlink:href="#DejaVuSans-20" x="776.998047"/>
      <use xlink:href="#DejaVuSans-73" x="808.785156"/>
      <use xlink:href="#DejaVuSans-74" x="860.884766"/>
      <use xlink:href="#DejaVuSans-61" x="900.09375"/>
      <use xlink:href="#DejaVuSans-72" x="961.373047"/>
      <use xlink:href="#DejaVuSans-74" x="1002.486328"/>
     </g>
    </g>
   </g>
   <g id="matplotlib.axis_2"/>
   <g id="LineCollection_1">
    <path d="M 44.884286 171.74 
L 826.502143 171.74 
" clip-path="url(#p83a66a54a7)" style="fill: none; stroke: #1f77b4; stroke-width: 2"/>
   </g>
   <g id="line2d_10">
    <path d="M 82.104184 171.74 
" clip-path="url(#p83a66a54a7)" style="fill: none; stroke: #1f77b4; stroke-width: 1.5; stroke-linecap: square"/>
    <defs>
     <path id="mcf32ada520" d="M 0 3 
C 0.795609 3 1.55874 2.683901 2.12132 2.12132 
C 2.683901 1.55874 3 0.795609 3 0 
C 3 -0.795609 2.683901 -1.55874 2.12132 -2.12132 
C 1.55874 -2.683901 0.795609 -3 0 -3 
C -0.795609 -3 -1.55874 -2.683901 -2.12132 -2.12132 
C -2.683901 -1.55874 -3 -0.795609 -3 0 
C -3 0.795609 -2.683901 1.55874 -2.12132 2.12132 
C -1.55874 2.683901 -0.795609 3 0 3 
z
" style="stroke: #1f77b4"/>
    </defs>
    <g clip-path="url(#p83a66a54a7)">
     <use xlink:href="#mcf32ada520" x="82.104184" y="171.74" style="fill: #1f77b4; stroke: #1f77b4"/>
    </g>
   </g>
   <g id="LineCollection_2">
    <path d="M 82.104184 171.74 
L 82.104184 124.1925 
" clip-path="url(#p83a66a54a7)" style="fill: none; stroke: #1f77b4"/>
   </g>
   <g id="line2d_11">
    <path d="M 305.423571 171.74 
" clip-path="url(#p83a66a54a7)" style="fill: none; stroke: #ff7f0e; stroke-width: 1.5; stroke-linecap: square"/>
    <defs>
     <path id="md9dcb0ab6c" d="M 0 3 
C 0.795609 3 1.55874 2.683901 2.12132 2.12132 
C 2.683901 1.55874 3 0.795609 3 0 
C 3 -0.795609 2.683901 -1.55874 2.12132 -2.12132 
C 1.55874 -2.683901 0.795609 -3 0 -3 
C -0.795609 -3 -1.55874 -2.683901 -2.12132 -2.12132 
C -2.683901 -1.55874 -3 -0.795609 -3 0 
C -3 0.795609 -2.683901 1.55874 -2.12132 2.12132 
C -1.55874 2.683901 -0.795609 3 0 3 
z
" style="stroke: #ff7f0e"/>
    </defs>
    <g clip-path="url(#p83a66a54a7)">
     <use xlink:href="#md9dcb0ab6c" x="305.423571" y="171.74" style="fill: #ff7f0e; stroke: #ff7f0e"/>
    </g>
   </g>
   <g id="LineCollection_3">
    <path d="M 305.423571 171.74 
L 305.423571 219.2875 
" clip-path="url(#p83a66a54a7)" style="fill: none; stroke: #1f77b4"/>
   </g>
   <g id="line2d_12">
    <path d="M 528.742959 171.74 
" clip-path="url(#p83a66a54a7)" style="fill: none; stroke: #2ca02c; stroke-width: 1.5; stroke-linecap: square"/>
    <defs>
     <path id="mb14508e647" d="M 0 3 
C 0.795609 3 1.55874 2.683901 2.12132 2.12132 
C 2.683901 1.55874 3 0.795609 3 0 
C 3 -0.795609 2.683901 -1.55874 2.12132 -2.12132 
C 1.55874 -2.683901 0.795609 -3 0 -3 
C -0.795609 -3 -1.55874 -2.683901 -2.12132 -2.12132 
C -2.683901 -1.55874 -3 -0.795609 -3 0 
C -3 0.795609 -2.683901 1.55874 -2.12132 2.12132 
C -1.55874 2.683901 -0.795609 3 0 3 
z
" style="stroke: #2ca02c"/>
    </defs>
    <g clip-path="url(#p83a66a54a7)">
     <use xlink:href="#mb14508e647" x="528.742959" y="171.74" style="fill: #2ca02c; stroke: #2ca02c"/>
    </g>
   </g>
   <g id="LineCollection_4">
    <path d="M 528.742959 171.74 
L 528.742959 124.1925 
" clip-path="url(#p83a66a54a7)" style="fill: none; stroke: #1f77b4"/>
   </g>
   <g id="line2d_13">
    <path d="M 640.402653 171.74 
" clip-path="url(#p83a66a54a7)" style="fill: none; stroke: #d62728; stroke-width: 1.5; stroke-linecap: square"/>
    <defs>
     <path id="m7132ba5844" d="M 0 3 
C 0.795609 3 1.55874 2.683901 2.12132 2.12132 
C 2.683901 1.55874 3 0.795609 3 0 
C 3 -0.795609 2.683901 -1.55874 2.12132 -2.12132 
C 1.55874 -2.683901 0.795609 -3 0 -3 
C -0.795609 -3 -1.55874 -2.683901 -2.12132 -2.12132 
C -2.683901 -1.55874 -3 -0.795609 -3 0 
C -3 0.795609 -2.683901 1.55874 -2.12132 2.12132 
C -1.55874 2.683901 -0.795609 3 0 3 
z
" style="stroke: #d62728"/>
    </defs>
    <g clip-path="url(#p83a66a54a7)">
     <use xlink:href="#m7132ba5844" x="640.402653" y="171.74" style="fill: #d62728; stroke: #d62728"/>
    </g>
   </g>
   <g id="LineCollection_5">
    <path d="M 640.402653 171.74 
L 640.402653 219.2875 
" clip-path="url(#p83a66a54a7)" style="fill: none; stroke: #1f77b4"/>
   </g>
   <g id="line2d_14">
    <path d="M 696.2325 171.74 
" clip-path="url(#p83a66a54a7)" style="fill: none; stroke: #9467bd; stroke-width: 1.5; stroke-linecap: square"/>
    <defs>
     <path id="m24d91a2c5b" d="M 0 3 
C 0.795609 3 1.55874 2.683901 2.12132 2.12132 
C 2.683901 1.55874 3 0.795609 3 0 
C 3 -0.795609 2.683901 -1.55874 2.12132 -2.12132 
C 1.55874 -2.683901 0.795609 -3 0 -3 
C -0.795609 -3 -1.55874 -2.683901 -2.12132 -2.12132 
C -2.683901 -1.55874 -3 -0.795609 -3 0 
C -3 0.795609 -2.683901 1.55874 -2.12132 2.12132 
C -1.55874 2.683901 -0.795609 3 0 3 
z
" style="stroke: #9467bd"/>
    </defs>
    <g clip-path="url(#p83a66a54a7)">
     <use xlink:href="#m24d91a2c5b" x="696.2325" y="171.74" style="fill: #9467bd; stroke: #9467bd"/>
    </g>
   </g>
   <g id="LineCollection_6">
    <path d="M 696.2325 171.74 
L 696.2325 124.1925 
" clip-path="url(#p83a66a54a7)" style="fill: none; stroke: #1f77b4"/>
   </g>
   <g id="line2d_15">
    <path d="M 752.062347 171.74 
" clip-path="url(#p83a66a54a7)" style="fill: none; stroke: #8c564b; stroke-width: 1.5; stroke-linecap: square"/>
    <defs>
     <path id="m163ac6c4b3" d="M 0 3 
C 0.795609 3 1.55874 2.683901 2.12132 2.12132 
C 2.683901 1.55874 3 0.795609 3 0 
C 3 -0.795609 2.683901 -1.55874 2.12132 -2.12132 
C 1.55874 -2.683901 0.795609 -3 0 -3 
C -0.795609 -3 -1.55874 -2.683901 -2.12132 -2.12132 
C -2.683901 -1.55874 -3 -0.795609 -3 0 
C -3 0.795609 -2.683901 1.55874 -2.12132 2.12132 
C -1.55874 2.683901 -0.795609 3 0 3 
z
" style="stroke: #8c564b"/>
    </defs>
    <g clip-path="url(#p83a66a54a7)">
     <use xlink:href="#m163ac6c4b3" x="752.062347" y="171.74" style="fill: #8c564b; stroke: #8c564b"/>
    </g>
   </g>
   <g id="LineCollection_7">
    <path d="M 752.062347 171.74 
L 752.062347 219.2875 
" clip-path="url(#p83a66a54a7)" style="fill: none; stroke: #1f77b4"/>
   </g>
   <g id="line2d_16">
    <path d="M 761.367321 171.74 
" clip-path="url(#p83a66a54a7)" style="fill: none; stroke: #e377c2; stroke-width: 1.5; stroke-linecap: square"/>
    <defs>
     <path id="m7ea1e06fd7" d="M 0 3 
C 0.795609 3 1.55874 2.683901 2.12132 2.12132 
C 2.683901 1.55874 3 0.795609 3 0 
C 3 -0.795609 2.683901 -1.55874 2.12132 -2.12132 
C 1.55874 -2.683901 0.795609 -3 0 -3 
C -0.795609 -3 -1.55874 -2.683901 -2.12132 -2.12132 
C -2.683901 -1.55874 -3 -0.795609 -3 0 
C -3 0.795609 -2.683901 1.55874 -2.12132 2.12132 
C -1.55874 2.683901 -0.795609 3 0 3 
z
" style="stroke: #e377c2"/>
    </defs>
    <g clip-path="url(#p83a66a54a7)">
     <use xlink:href="#m7ea1e06fd7" x="761.367321" y="171.74" style="fill: #e377c2; stroke: #e377c2"/>
    </g>
   </g>
   <g id="LineCollection_8">
    <path d="M 761.367321 171.74 
L 761.367321 124.1925 
" clip-path="url(#p83a66a54a7)" style="fill: none; stroke: #1f77b4"/>
   </g>
   <g id="line2d_17">
    <path d="M 779.97727 171.74 
" clip-path="url(#p83a66a54a7)" style="fill: none; stroke: #7f7f7f; stroke-width: 1.5; stroke-linecap: square"/>
    <defs>
     <path id="mea6b0a9c80" d="M 0 3 
C 0.795609 3 1.55874 2.683901 2.12132 2.12132 
C 2.683901 1.55874 3 0.795609 3 0 
C 3 -0.795609 2.683901 -1.55874 2.12132 -2.12132 
C 1.55874 -2.683901 0.795609 -3 0 -3 
C -0.795609 -3 -1.55874 -2.683901 -2.12132 -2.12132 
C -2.683901 -1.55874 -3 -0.795609 -3 0 
C -3 0.795609 -2.683901 1.55874 -2.12132 2.12132 
C -1.55874 2.683901 -0.795609 3 0 3 
z
" style="stroke: #7f7f7f"/>
    </defs>
    <g clip-path="url(#p83a66a54a7)">
     <use xlink:href="#mea6b0a9c80" x="779.97727" y="171.74" style="fill: #7f7f7f; stroke: #7f7f7f"/>
    </g>
   </g>
   <g id="LineCollection_9">
    <path d="M 779.97727 171.74 
L 779.97727 219.2875 
" clip-path="url(#p83a66a54a7)" style="fill: none; stroke: #1f77b4"/>
   </g>
   <g id="patch_3">
    <path d="M 44.884286 318.04 
L 44.884286 25.44 
" style="fill: none; stroke: #000000; stroke-width: 0.8; stroke-linejoin: miter; stroke-linecap: square"/>
   </g>
   <g id="patch_4">
    <path d="M 826.502143 318.04 
L 826.502143 25.44 
" style="fill: none; stroke: #000000; stroke-width: 0.8; stroke-linejoin: miter; stroke-linecap: square"/>
   </g>
   <g id="patch_5">
    <path d="M 44.884286 318.04 
L 826.502143 318.04 
" style="fill: none; stroke: #000000; stroke-width: 0.8; stroke-linejoin: miter; stroke-linecap: square"/>
   </g>
   <g id="patch_6">
    <path d="M 44.884286 25.44 
L 826.502143 25.44 
" style="fill: none; stroke: #000000; stroke-width: 0.8; stroke-linejoin: miter; stroke-linecap: square"/>
   </g>
   <g id="patch_7">
    <path d="M 82.104184 110.988532 
Q 82.104184 117.590516 82.104184 124.1925 
" style="fill: none; stroke: #000000; stroke-width: 0.8; stroke-linecap: round"/>
   </g>
   <g id="text_11">
    <g id="patch_8">
     <path d="M 16.315902 110.586563 
L 147.892465 110.586563 
Q 151.392465 110.586563 151.392465 107.086563 
L 151.392465 97.408438 
Q 151.392465 93.908438 147.892465 93.908438 
L 16.315902 93.908438 
Q 12.815902 93.908438 12.815902 97.408438 
L 12.815902 107.086563 
Q 12.815902 110.586563 16.315902 110.586563 
z
" style="fill: #ffffff; stroke: #000000; stroke-width: 0.8; stroke-linejoin: miter"/>
    </g>
    <!-- Fast start Day 0 • 1:30 PM -->
    <g transform="translate(16.315902 105.006875) scale(0.1 -0.1)">
     <defs>
      <path id="DejaVuSans-46" d="M 628 4666 
L 3309 4666 
L 3309 4134 
L 1259 4134 
L 1259 2759 
L 3109 2759 
L 3109 2228 
L 1259 2228 
L 1259 0 
L 628 0 
L 628 4666 
z
" transform="scale(0.015625)"/>
      <path id="DejaVuSans-44" d="M 1259 4147 
L 1259 519 
L 2022 519 
Q 2988 519 3436 956 
Q 3884 1394 3884 2338 
Q 3884 3275 3436 3711 
Q 2988 4147 2022 4147 
L 1259 4147 
z
M 628 4666 
L 1925 4666 
Q 3281 4666 3915 4102 
Q 4550 3538 4550 2338 
Q 4550 1131 3912 565 
Q 3275 0 1925 0 
L 628 0 
L 628 4666 
z
" transform="scale(0.015625)"/>
      <path id="DejaVuSans-79" d="M 2059 -325 
Q 1816 -950 1584 -1140 
Q 1353 -1331 966 -1331 
L 506 -1331 
L 506 -850 
L 844 -850 
Q 1081 -850 1212 -737 
Q 1344 -625 1503 -206 
L 1606 56 
L 191 3500 
L 800 3500 
L 1894 763 
L 2988 3500 
L 3597 3500 
L 2059 -325 
z
" transform="scale(0.015625)"/>
      <path id="DejaVuSans-2022" d="M 959 2381 
Q 959 2769 1229 3036 
Q 1500 3303 1894 3303 
Q 2281 3303 2548 3036 
Q 2816 2769 2816 2381 
Q 2816 1991 2547 1722 
Q 2278 1453 1888 1453 
Q 1497 1453 1228 1722 
Q 959 1991 959 2381 
z
" transform="scale(0.015625)"/>
      <path id="DejaVuSans-3a" d="M 750 794 
L 1409 794 
L 1409 0 
L 750 0 
L 750 794 
z
M 750 3309 
L 1409 3309 
L 1409 2516 
L 750 2516 
L 750 3309 
z
" transform="scale(0.015625)"/>
      <path id="DejaVuSans-50" d="M 1259 4147 
L 1259 2394 
L 2053 2394 
Q 2494 2394 2734 2622 
Q 2975 2850 2975 3272 
Q 2975 3691 2734 3919 
Q 2494 4147 2053 4147 
L 1259 4147 
z
M 628 4666 
L 2053 4666 
Q 2838 4666 3239 4311 
Q 3641 3956 3641 3272 
Q 3641 2581 3239 2228 
Q 2838 1875 2053 1875 
L 1259 1875 
L 1259 0 
L 628 0 
L 628 4666 
z
" transform="scale(0.015625)"/>
      <path id="DejaVuSans-4d" d="M 628 4666 
L 1569 4666 
L 2759 1491 
L 3956 4666 
L 4897 4666 
L 4897 0 
L 4281 0 
L 4281 4097 
L 3078 897 
L 2444 897 
L 1241 4097 
L 1241 0 
L 628 0 
L 628 4666 
z
" transform="scale(0.015625)"/>
     </defs>
     <use xlink:href="#DejaVuSans-46"/>
     <use xlink:href="#DejaVuSans-61" x="48.394531"/>
     <use xlink:href="#DejaVuSans-73" x="109.673828"/>
     <use xlink:href="#DejaVuSans-74" x="161.773438"/>
     <use xlink:href="#DejaVuSans-20" x="200.982422"/>
     <use xlink:href="#DejaVuSans-73" x="232.769531"/>
     <use xlink:href="#DejaVuSans-74" x="284.869141"/>
     <use xlink:href="#DejaVuSans-61" x="324.078125"/>
     <use xlink:href="#DejaVuSans-72" x="385.357422"/>
     <use xlink:href="#DejaVuSans-74" x="426.470703"/>
     <use xlink:href="#DejaVuSans-20" x="465.679688"/>
     <use xlink:href="#DejaVuSans-44" x="497.466797"/>
     <use xlink:href="#DejaVuSans-61" x="574.46875"/>
     <use xlink:href="#DejaVuSans-79" x="635.748047"/>
     <use xlink:href="#DejaVuSans-20" x="694.927734"/>
     <use xlink:href="#DejaVuSans-30" x="726.714844"/>
     <use xlink:href="#DejaVuSans-20" x="790.337891"/>
     <use xlink:href="#DejaVuSans-2022" x="822.125"/>
     <use xlink:href="#DejaVuSans-20" x="881.109375"/>
     <use xlink:href="#DejaVuSans-31" x="912.896484"/>
     <use xlink:href="#DejaVuSans-3a" x="976.519531"/>
     <use xlink:href="#DejaVuSans-33" x="1010.210938"/>
     <use xlink:href="#DejaVuSans-30" x="1073.833984"/>
     <use xlink:href="#DejaVuSans-20" x="1137.457031"/>
     <use xlink:href="#DejaVuSans-50" x="1169.244141"/>
     <use xlink:href="#DejaVuSans-4d" x="1229.546875"/>
    </g>
   </g>
   <g id="patch_9">
    <path d="M 305.423571 226.892707 
Q 305.423571 223.090103 305.423571 219.2875 
" style="fill: none; stroke: #000000; stroke-width: 0.8; stroke-linecap: round"/>
   </g>
   <g id="text_12">
    <g id="patch_10">
     <path d="M 251.580603 255.170469 
L 359.26654 255.170469 
Q 362.76654 255.170469 362.76654 251.670469 
L 362.76654 230.794531 
Q 362.76654 227.294531 359.26654 227.294531 
L 251.580603 227.294531 
Q 248.080603 227.294531 248.080603 230.794531 
L 248.080603 251.670469 
Q 248.080603 255.170469 251.580603 255.170469 
z
" style="fill: #ffffff; stroke: #000000; stroke-width: 0.8; stroke-linejoin: miter"/>
    </g>
    <!-- Day 1 Hyperglycemia -->
    <g transform="translate(251.580603 238.392969) scale(0.1 -0.1)">
     <defs>
      <path id="DejaVuSans-70" d="M 1159 525 
L 1159 -1331 
L 581 -1331 
L 581 3500 
L 1159 3500 
L 1159 2969 
Q 1341 3281 1617 3432 
Q 1894 3584 2278 3584 
Q 2916 3584 3314 3078 
Q 3713 2572 3713 1747 
Q 3713 922 3314 415 
Q 2916 -91 2278 -91 
Q 1894 -91 1617 61 
Q 1341 213 1159 525 
z
M 3116 1747 
Q 3116 2381 2855 2742 
Q 2594 3103 2138 3103 
Q 1681 3103 1420 2742 
Q 1159 2381 1159 1747 
Q 1159 1113 1420 752 
Q 1681 391 2138 391 
Q 2594 391 2855 752 
Q 3116 1113 3116 1747 
z
" transform="scale(0.015625)"/>
      <path id="DejaVuSans-65" d="M 3597 1894 
L 3597 1613 
L 953 1613 
Q 991 1019 1311 708 
Q 1631 397 2203 397 
Q 2534 397 2845 478 
Q 3156 559 3463 722 
L 3463 178 
Q 3153 47 2828 -22 
Q 2503 -91 2169 -91 
Q 1331 -91 842 396 
Q 353 884 353 1716 
Q 353 2575 817 3079 
Q 1281 3584 2069 3584 
Q 2775 3584 3186 3129 
Q 3597 2675 3597 1894 
z
M 3022 2063 
Q 3016 2534 2758 2815 
Q 2500 3097 2075 3097 
Q 1594 3097 1305 2825 
Q 1016 2553 972 2059 
L 3022 2063 
z
" transform="scale(0.015625)"/>
      <path id="DejaVuSans-67" d="M 2906 1791 
Q 2906 2416 2648 2759 
Q 2391 3103 1925 3103 
Q 1463 3103 1205 2759 
Q 947 2416 947 1791 
Q 947 1169 1205 825 
Q 1463 481 1925 481 
Q 2391 481 2648 825 
Q 2906 1169 2906 1791 
z
M 3481 434 
Q 3481 -459 3084 -895 
Q 2688 -1331 1869 -1331 
Q 1566 -1331 1297 -1286 
Q 1028 -1241 775 -1147 
L 775 -588 
Q 1028 -725 1275 -790 
Q 1522 -856 1778 -856 
Q 2344 -856 2625 -561 
Q 2906 -266 2906 331 
L 2906 616 
Q 2728 306 2450 153 
Q 2172 0 1784 0 
Q 1141 0 747 490 
Q 353 981 353 1791 
Q 353 2603 747 3093 
Q 1141 3584 1784 3584 
Q 2172 3584 2450 3431 
Q 2728 3278 2906 2969 
L 2906 3500 
L 3481 3500 
L 3481 434 
z
" transform="scale(0.015625)"/>
      <path id="DejaVuSans-6c" d="M 603 4863 
L 1178 4863 
L 1178 0 
L 603 0 
L 603 4863 
z
" transform="scale(0.015625)"/>
      <path id="DejaVuSans-63" d="M 3122 3366 
L 3122 2828 
Q 2878 2963 2633 3030 
Q 2388 3097 2138 3097 
Q 1578 3097 1268 2742 
Q 959 2388 959 1747 
Q 959 1106 1268 751 
Q 1578 397 2138 397 
Q 2388 397 2633 464 
Q 2878 531 3122 666 
L 3122 134 
Q 2881 22 2623 -34 
Q 2366 -91 2075 -91 
Q 1284 -91 818 406 
Q 353 903 353 1747 
Q 353 2603 823 3093 
Q 1294 3584 2113 3584 
Q 2378 3584 2631 3529 
Q 2884 3475 3122 3366 
z
" transform="scale(0.015625)"/>
      <path id="DejaVuSans-69" d="M 603 3500 
L 1178 3500 
L 1178 0 
L 603 0 
L 603 3500 
z
M 603 4863 
L 1178 4863 
L 1178 4134 
L 603 4134 
L 603 4863 
z
" transform="scale(0.015625)"/>
     </defs>
     <use xlink:href="#DejaVuSans-44"/>
     <use xlink:href="#DejaVuSans-61" x="77.001953"/>
     <use xlink:href="#DejaVuSans-79" x="138.28125"/>
     <use xlink:href="#DejaVuSans-20" x="197.460938"/>
     <use xlink:href="#DejaVuSans-31" x="229.248047"/>
     <use xlink:href="#DejaVuSans-20" x="292.871094"/>
     <use xlink:href="#DejaVuSans-48" x="324.658203"/>
     <use xlink:href="#DejaVuSans-79" x="399.853516"/>
     <use xlink:href="#DejaVuSans-70" x="459.033203"/>
     <use xlink:href="#DejaVuSans-65" x="522.509766"/>
     <use xlink:href="#DejaVuSans-72" x="584.033203"/>
     <use xlink:href="#DejaVuSans-67" x="623.396484"/>
     <use xlink:href="#DejaVuSans-6c" x="686.873047"/>
     <use xlink:href="#DejaVuSans-79" x="714.65625"/>
     <use xlink:href="#DejaVuSans-63" x="773.835938"/>
     <use xlink:href="#DejaVuSans-65" x="828.816406"/>
     <use xlink:href="#DejaVuSans-6d" x="890.339844"/>
     <use xlink:href="#DejaVuSans-69" x="987.751953"/>
     <use xlink:href="#DejaVuSans-61" x="1015.535156"/>
    </g>
    <!-- persists; ketones low -->
    <g transform="translate(252.893884 249.590781) scale(0.1 -0.1)">
     <defs>
      <path id="DejaVuSans-3b" d="M 750 3309 
L 1409 3309 
L 1409 2516 
L 750 2516 
L 750 3309 
z
M 750 794 
L 1409 794 
L 1409 256 
L 897 -744 
L 494 -744 
L 750 256 
L 750 794 
z
" transform="scale(0.015625)"/>
      <path id="DejaVuSans-6b" d="M 581 4863 
L 1159 4863 
L 1159 1991 
L 2875 3500 
L 3609 3500 
L 1753 1863 
L 3688 0 
L 2938 0 
L 1159 1709 
L 1159 0 
L 581 0 
L 581 4863 
z
" transform="scale(0.015625)"/>
      <path id="DejaVuSans-6e" d="M 3513 2113 
L 3513 0 
L 2938 0 
L 2938 2094 
Q 2938 2591 2744 2837 
Q 2550 3084 2163 3084 
Q 1697 3084 1428 2787 
Q 1159 2491 1159 1978 
L 1159 0 
L 581 0 
L 581 3500 
L 1159 3500 
L 1159 2956 
Q 1366 3272 1645 3428 
Q 1925 3584 2291 3584 
Q 2894 3584 3203 3211 
Q 3513 2838 3513 2113 
z
" transform="scale(0.015625)"/>
      <path id="DejaVuSans-77" d="M 269 3500 
L 844 3500 
L 1563 769 
L 2278 3500 
L 2956 3500 
L 3675 769 
L 4391 3500 
L 4966 3500 
L 4050 0 
L 3372 0 
L 2619 2869 
L 1863 0 
L 1184 0 
L 269 3500 
z
" transform="scale(0.015625)"/>
     </defs>
     <use xlink:href="#DejaVuSans-70"/>
     <use xlink:href="#DejaVuSans-65" x="63.476562"/>
     <use xlink:href="#DejaVuSans-72" x="125"/>
     <use xlink:href="#DejaVuSans-73" x="166.113281"/>
     <use xlink:href="#DejaVuSans-69" x="218.212891"/>
     <use xlink:href="#DejaVuSans-73" x="245.996094"/>
     <use xlink:href="#DejaVuSans-74" x="298.095703"/>
     <use xlink:href="#DejaVuSans-73" x="337.304688"/>
     <use xlink:href="#DejaVuSans-3b" x="389.404297"/>
     <use xlink:href="#DejaVuSans-20" x="423.095703"/>
     <use xlink:href="#DejaVuSans-6b" x="454.882812"/>
     <use xlink:href="#DejaVuSans-65" x="509.167969"/>
     <use xlink:href="#DejaVuSans-74" x="570.691406"/>
     <use xlink:href="#DejaVuSans-6f" x="609.900391"/>
     <use xlink:href="#DejaVuSans-6e" x="671.082031"/>
     <use xlink:href="#DejaVuSans-65" x="734.460938"/>
     <use xlink:href="#DejaVuSans-73" x="795.984375"/>
     <use xlink:href="#DejaVuSans-20" x="848.083984"/>
     <use xlink:href="#DejaVuSans-6c" x="879.871094"/>
     <use xlink:href="#DejaVuSans-6f" x="907.654297"/>
     <use xlink:href="#DejaVuSans-77" x="968.835938"/>
    </g>
   </g>
   <g id="patch_11">
    <path d="M 528.742959 116.587293 
Q 528.742959 120.389897 528.742959 124.1925 
" style="fill: none; stroke: #000000; stroke-width: 0.8; stroke-linecap: round"/>
   </g>
   <g id="text_13">
    <g id="patch_12">
     <path d="M 461.546084 116.185469 
L 595.939834 116.185469 
Q 599.439834 116.185469 599.439834 112.685469 
L 599.439834 91.809531 
Q 599.439834 88.309531 595.939834 88.309531 
L 461.546084 88.309531 
Q 458.046084 88.309531 458.046084 91.809531 
L 458.046084 112.685469 
Q 458.046084 116.185469 461.546084 116.185469 
z
" style="fill: #ffffff; stroke: #000000; stroke-width: 0.8; stroke-linejoin: miter"/>
    </g>
    <!-- Day 2 Marked sympathetic -->
    <g transform="translate(461.546084 99.407969) scale(0.1 -0.1)">
     <defs>
      <path id="DejaVuSans-64" d="M 2906 2969 
L 2906 4863 
L 3481 4863 
L 3481 0 
L 2906 0 
L 2906 525 
Q 2725 213 2448 61 
Q 2172 -91 1784 -91 
Q 1150 -91 751 415 
Q 353 922 353 1747 
Q 353 2572 751 3078 
Q 1150 3584 1784 3584 
Q 2172 3584 2448 3432 
Q 2725 3281 2906 2969 
z
M 947 1747 
Q 947 1113 1208 752 
Q 1469 391 1925 391 
Q 2381 391 2643 752 
Q 2906 1113 2906 1747 
Q 2906 2381 2643 2742 
Q 2381 3103 1925 3103 
Q 1469 3103 1208 2742 
Q 947 2381 947 1747 
z
" transform="scale(0.015625)"/>
      <path id="DejaVuSans-68" d="M 3513 2113 
L 3513 0 
L 2938 0 
L 2938 2094 
Q 2938 2591 2744 2837 
Q 2550 3084 2163 3084 
Q 1697 3084 1428 2787 
Q 1159 2491 1159 1978 
L 1159 0 
L 581 0 
L 581 4863 
L 1159 4863 
L 1159 2956 
Q 1366 3272 1645 3428 
Q 1925 3584 2291 3584 
Q 2894 3584 3203 3211 
Q 3513 2838 3513 2113 
z
" transform="scale(0.015625)"/>
     </defs>
     <use xlink:href="#DejaVuSans-44"/>
     <use xlink:href="#DejaVuSans-61" x="77.001953"/>
     <use xlink:href="#DejaVuSans-79" x="138.28125"/>
     <use xlink:href="#DejaVuSans-20" x="197.460938"/>
     <use xlink:href="#DejaVuSans-32" x="229.248047"/>
     <use xlink:href="#DejaVuSans-20" x="292.871094"/>
     <use xlink:href="#DejaVuSans-4d" x="324.658203"/>
     <use xlink:href="#DejaVuSans-61" x="410.9375"/>
     <use xlink:href="#DejaVuSans-72" x="472.216797"/>
     <use xlink:href="#DejaVuSans-6b" x="513.330078"/>
     <use xlink:href="#DejaVuSans-65" x="567.615234"/>
     <use xlink:href="#DejaVuSans-64" x="629.138672"/>
     <use xlink:href="#DejaVuSans-20" x="692.615234"/>
     <use xlink:href="#DejaVuSans-73" x="724.402344"/>
     <use xlink:href="#DejaVuSans-79" x="776.501953"/>
     <use xlink:href="#DejaVuSans-6d" x="835.681641"/>
     <use xlink:href="#DejaVuSans-70" x="933.09375"/>
     <use xlink:href="#DejaVuSans-61" x="996.570312"/>
     <use xlink:href="#DejaVuSans-74" x="1057.849609"/>
     <use xlink:href="#DejaVuSans-68" x="1097.058594"/>
     <use xlink:href="#DejaVuSans-65" x="1160.4375"/>
     <use xlink:href="#DejaVuSans-74" x="1221.960938"/>
     <use xlink:href="#DejaVuSans-69" x="1261.169922"/>
     <use xlink:href="#DejaVuSans-63" x="1288.953125"/>
    </g>
    <!-- tone; still no ketosis -->
    <g transform="translate(478.657803 110.605781) scale(0.1 -0.1)">
     <use xlink:href="#DejaVuSans-74"/>
     <use xlink:href="#DejaVuSans-6f" x="39.208984"/>
     <use xlink:href="#DejaVuSans-6e" x="100.390625"/>
     <use xlink:href="#DejaVuSans-65" x="163.769531"/>
     <use xlink:href="#DejaVuSans-3b" x="225.292969"/>
     <use xlink:href="#DejaVuSans-20" x="258.984375"/>
     <use xlink:href="#DejaVuSans-73" x="290.771484"/>
     <use xlink:href="#DejaVuSans-74" x="342.871094"/>
     <use xlink:href="#DejaVuSans-69" x="382.080078"/>
     <use xlink:href="#DejaVuSans-6c" x="409.863281"/>
     <use xlink:href="#DejaVuSans-6c" x="437.646484"/>
     <use xlink:href="#DejaVuSans-20" x="465.429688"/>
     <use xlink:href="#DejaVuSans-6e" x="497.216797"/>
     <use xlink:href="#DejaVuSans-6f" x="560.595703"/>
     <use xlink:href="#DejaVuSans-20" x="621.777344"/>
     <use xlink:href="#DejaVuSans-6b" x="653.564453"/>
     <use xlink:href="#DejaVuSans-65" x="707.849609"/>
     <use xlink:href="#DejaVuSans-74" x="769.373047"/>
     <use xlink:href="#DejaVuSans-6f" x="808.582031"/>
     <use xlink:href="#DejaVuSans-73" x="869.763672"/>
     <use xlink:href="#DejaVuSans-69" x="921.863281"/>
     <use xlink:href="#DejaVuSans-73" x="949.646484"/>
    </g>
   </g>
   <g id="patch_13">
    <path d="M 640.402653 221.293946 
Q 640.402653 220.290723 640.402653 219.2875 
" style="fill: none; stroke: #000000; stroke-width: 0.8; stroke-linecap: round"/>
   </g>
   <g id="text_14">
    <g id="patch_14">
     <path d="M 568.476872 260.769375 
L 712.328434 260.769375 
Q 715.828434 260.769375 715.828434 257.269375 
L 715.828434 225.195625 
Q 715.828434 221.695625 712.328434 221.695625 
L 568.476872 221.695625 
Q 564.976872 221.695625 564.976872 225.195625 
L 564.976872 257.269375 
Q 564.976872 260.769375 568.476872 260.769375 
z
" style="fill: #ffffff; stroke: #000000; stroke-width: 0.8; stroke-linejoin: miter"/>
    </g>
    <!-- Seroquel given Evening; -->
    <g transform="translate(579.614372 232.794063) scale(0.1 -0.1)">
     <defs>
      <path id="DejaVuSans-53" d="M 3425 4513 
L 3425 3897 
Q 3066 4069 2747 4153 
Q 2428 4238 2131 4238 
Q 1616 4238 1336 4038 
Q 1056 3838 1056 3469 
Q 1056 3159 1242 3001 
Q 1428 2844 1947 2747 
L 2328 2669 
Q 3034 2534 3370 2195 
Q 3706 1856 3706 1288 
Q 3706 609 3251 259 
Q 2797 -91 1919 -91 
Q 1588 -91 1214 -16 
Q 841 59 441 206 
L 441 856 
Q 825 641 1194 531 
Q 1563 422 1919 422 
Q 2459 422 2753 634 
Q 3047 847 3047 1241 
Q 3047 1584 2836 1778 
Q 2625 1972 2144 2069 
L 1759 2144 
Q 1053 2284 737 2584 
Q 422 2884 422 3419 
Q 422 4038 858 4394 
Q 1294 4750 2059 4750 
Q 2388 4750 2728 4690 
Q 3069 4631 3425 4513 
z
" transform="scale(0.015625)"/>
      <path id="DejaVuSans-71" d="M 947 1747 
Q 947 1113 1208 752 
Q 1469 391 1925 391 
Q 2381 391 2643 752 
Q 2906 1113 2906 1747 
Q 2906 2381 2643 2742 
Q 2381 3103 1925 3103 
Q 1469 3103 1208 2742 
Q 947 2381 947 1747 
z
M 2906 525 
Q 2725 213 2448 61 
Q 2172 -91 1784 -91 
Q 1150 -91 751 415 
Q 353 922 353 1747 
Q 353 2572 751 3078 
Q 1150 3584 1784 3584 
Q 2172 3584 2448 3432 
Q 2725 3281 2906 2969 
L 2906 3500 
L 3481 3500 
L 3481 -1331 
L 2906 -1331 
L 2906 525 
z
" transform="scale(0.015625)"/>
      <path id="DejaVuSans-76" d="M 191 3500 
L 800 3500 
L 1894 563 
L 2988 3500 
L 3597 3500 
L 2284 0 
L 1503 0 
L 191 3500 
z
" transform="scale(0.015625)"/>
      <path id="DejaVuSans-45" d="M 628 4666 
L 3578 4666 
L 3578 4134 
L 1259 4134 
L 1259 2753 
L 3481 2753 
L 3481 2222 
L 1259 2222 
L 1259 531 
L 3634 531 
L 3634 0 
L 628 0 
L 628 4666 
z
" transform="scale(0.015625)"/>
     </defs>
     <use xlink:href="#DejaVuSans-53"/>
     <use xlink:href="#DejaVuSans-65" x="63.476562"/>
     <use xlink:href="#DejaVuSans-72" x="125"/>
     <use xlink:href="#DejaVuSans-6f" x="163.863281"/>
     <use xlink:href="#DejaVuSans-71" x="225.044922"/>
     <use xlink:href="#DejaVuSans-75" x="288.521484"/>
     <use xlink:href="#DejaVuSans-65" x="351.900391"/>
     <use xlink:href="#DejaVuSans-6c" x="413.423828"/>
     <use xlink:href="#DejaVuSans-20" x="441.207031"/>
     <use xlink:href="#DejaVuSans-67" x="472.994141"/>
     <use xlink:href="#DejaVuSans-69" x="536.470703"/>
     <use xlink:href="#DejaVuSans-76" x="564.253906"/>
     <use xlink:href="#DejaVuSans-65" x="623.433594"/>
     <use xlink:href="#DejaVuSans-6e" x="684.957031"/>
     <use xlink:href="#DejaVuSans-20" x="748.335938"/>
     <use xlink:href="#DejaVuSans-45" x="780.123047"/>
     <use xlink:href="#DejaVuSans-76" x="843.306641"/>
     <use xlink:href="#DejaVuSans-65" x="902.486328"/>
     <use xlink:href="#DejaVuSans-6e" x="964.009766"/>
     <use xlink:href="#DejaVuSans-69" x="1027.388672"/>
     <use xlink:href="#DejaVuSans-6e" x="1055.171875"/>
     <use xlink:href="#DejaVuSans-67" x="1118.550781"/>
     <use xlink:href="#DejaVuSans-3b" x="1182.027344"/>
    </g>
    <!-- sedation lowers sympathetic -->
    <g transform="translate(568.476872 243.991875) scale(0.1 -0.1)">
     <use xlink:href="#DejaVuSans-73"/>
     <use xlink:href="#DejaVuSans-65" x="52.099609"/>
     <use xlink:href="#DejaVuSans-64" x="113.623047"/>
     <use xlink:href="#DejaVuSans-61" x="177.099609"/>
     <use xlink:href="#DejaVuSans-74" x="238.378906"/>
     <use xlink:href="#DejaVuSans-69" x="277.587891"/>
     <use xlink:href="#DejaVuSans-6f" x="305.371094"/>
     <use xlink:href="#DejaVuSans-6e" x="366.552734"/>
     <use xlink:href="#DejaVuSans-20" x="429.931641"/>
     <use xlink:href="#DejaVuSans-6c" x="461.71875"/>
     <use xlink:href="#DejaVuSans-6f" x="489.501953"/>
     <use xlink:href="#DejaVuSans-77" x="550.683594"/>
     <use xlink:href="#DejaVuSans-65" x="632.470703"/>
     <use xlink:href="#DejaVuSans-72" x="693.994141"/>
     <use xlink:href="#DejaVuSans-73" x="735.107422"/>
     <use xlink:href="#DejaVuSans-20" x="787.207031"/>
     <use xlink:href="#DejaVuSans-73" x="818.994141"/>
     <use xlink:href="#DejaVuSans-79" x="871.09375"/>
     <use xlink:href="#DejaVuSans-6d" x="930.273438"/>
     <use xlink:href="#DejaVuSans-70" x="1027.685547"/>
     <use xlink:href="#DejaVuSans-61" x="1091.162109"/>
     <use xlink:href="#DejaVuSans-74" x="1152.441406"/>
     <use xlink:href="#DejaVuSans-68" x="1191.650391"/>
     <use xlink:href="#DejaVuSans-65" x="1255.029297"/>
     <use xlink:href="#DejaVuSans-74" x="1316.552734"/>
     <use xlink:href="#DejaVuSans-69" x="1355.761719"/>
     <use xlink:href="#DejaVuSans-63" x="1383.544922"/>
    </g>
    <!-- output -->
    <g transform="translate(623.911247 255.189688) scale(0.1 -0.1)">
     <use xlink:href="#DejaVuSans-6f"/>
     <use xlink:href="#DejaVuSans-75" x="61.181641"/>
     <use xlink:href="#DejaVuSans-74" x="124.560547"/>
     <use xlink:href="#DejaVuSans-70" x="163.769531"/>
     <use xlink:href="#DejaVuSans-75" x="227.246094"/>
     <use xlink:href="#DejaVuSans-74" x="290.625"/>
    </g>
   </g>
   <g id="patch_15">
    <path d="M 696.2325 116.614081 
Q 696.2325 120.403291 696.2325 124.1925 
" style="fill: none; stroke: #000000; stroke-width: 0.8; stroke-linecap: round"/>
   </g>
   <g id="text_15">
    <g id="patch_16">
     <path d="M 634.173906 116.216719 
L 758.291094 116.216719 
Q 761.791094 116.216719 761.791094 112.716719 
L 761.791094 91.778281 
Q 761.791094 88.278281 758.291094 88.278281 
L 634.173906 88.278281 
Q 630.673906 88.278281 630.673906 91.778281 
L 630.673906 112.716719 
Q 630.673906 116.216719 634.173906 116.216719 
z
" style="fill: #ffffff; stroke: #000000; stroke-width: 0.8; stroke-linejoin: miter"/>
    </g>
    <!-- Ketosis shift β-HB begins -->
    <g transform="translate(634.173906 99.439219) scale(0.1 -0.1)">
     <defs>
      <path id="DejaVuSans-4b" d="M 628 4666 
L 1259 4666 
L 1259 2694 
L 3353 4666 
L 4166 4666 
L 1850 2491 
L 4331 0 
L 3500 0 
L 1259 2247 
L 1259 0 
L 628 0 
L 628 4666 
z
" transform="scale(0.015625)"/>
      <path id="DejaVuSans-3b2" d="M 1178 216 
L 1178 -1331 
L 600 -1331 
L 600 3478 
Q 600 4903 1931 4903 
Q 3288 4903 3288 3700 
Q 3288 2844 2750 2531 
Q 3625 2250 3625 1416 
Q 3625 -66 2119 -66 
Q 1456 -66 1178 216 
z
M 1178 966 
Q 1525 425 2141 425 
Q 3041 425 3041 1406 
Q 3041 2288 1591 2219 
L 1591 2750 
Q 2725 2750 2725 3750 
Q 2725 4434 1994 4434 
Q 1178 4434 1178 3459 
L 1178 966 
z
" transform="scale(0.015625)"/>
      <path id="DejaVuSans-2d" d="M 313 2009 
L 1997 2009 
L 1997 1497 
L 313 1497 
L 313 2009 
z
" transform="scale(0.015625)"/>
      <path id="DejaVuSans-42" d="M 1259 2228 
L 1259 519 
L 2272 519 
Q 2781 519 3026 730 
Q 3272 941 3272 1375 
Q 3272 1813 3026 2020 
Q 2781 2228 2272 2228 
L 1259 2228 
z
M 1259 4147 
L 1259 2741 
L 2194 2741 
Q 2656 2741 2882 2914 
Q 3109 3088 3109 3444 
Q 3109 3797 2882 3972 
Q 2656 4147 2194 4147 
L 1259 4147 
z
M 628 4666 
L 2241 4666 
Q 2963 4666 3353 4366 
Q 3744 4066 3744 3513 
Q 3744 3084 3544 2831 
Q 3344 2578 2956 2516 
Q 3422 2416 3680 2098 
Q 3938 1781 3938 1306 
Q 3938 681 3513 340 
Q 3088 0 2303 0 
L 628 0 
L 628 4666 
z
" transform="scale(0.015625)"/>
      <path id="DejaVuSans-62" d="M 3116 1747 
Q 3116 2381 2855 2742 
Q 2594 3103 2138 3103 
Q 1681 3103 1420 2742 
Q 1159 2381 1159 1747 
Q 1159 1113 1420 752 
Q 1681 391 2138 391 
Q 2594 391 2855 752 
Q 3116 1113 3116 1747 
z
M 1159 2969 
Q 1341 3281 1617 3432 
Q 1894 3584 2278 3584 
Q 2916 3584 3314 3078 
Q 3713 2572 3713 1747 
Q 3713 922 3314 415 
Q 2916 -91 2278 -91 
Q 1894 -91 1617 61 
Q 1341 213 1159 525 
L 1159 0 
L 581 0 
L 581 4863 
L 1159 4863 
L 1159 2969 
z
" transform="scale(0.015625)"/>
     </defs>
     <use xlink:href="#DejaVuSans-4b"/>
     <use xlink:href="#DejaVuSans-65" x="60.576172"/>
     <use xlink:href="#DejaVuSans-74" x="122.099609"/>
     <use xlink:href="#DejaVuSans-6f" x="161.308594"/>
     <use xlink:href="#DejaVuSans-73" x="222.490234"/>
     <use xlink:href="#DejaVuSans-69" x="274.589844"/>
     <use xlink:href="#DejaVuSans-73" x="302.373047"/>
     <use xlink:href="#DejaVuSans-20" x="354.472656"/>
     <use xlink:href="#DejaVuSans-73" x="386.259766"/>
     <use xlink:href="#DejaVuSans-68" x="438.359375"/>
     <use xlink:href="#DejaVuSans-69" x="501.738281"/>
     <use xlink:href="#DejaVuSans-66" x="529.521484"/>
     <use xlink:href="#DejaVuSans-74" x="562.976562"/>
     <use xlink:href="#DejaVuSans-20" x="602.185547"/>
     <use xlink:href="#DejaVuSans-3b2" x="633.972656"/>
     <use xlink:href="#DejaVuSans-2d" x="697.791016"/>
     <use xlink:href="#DejaVuSans-48" x="733.875"/>
     <use xlink:href="#DejaVuSans-42" x="809.070312"/>
     <use xlink:href="#DejaVuSans-20" x="877.673828"/>
     <use xlink:href="#DejaVuSans-62" x="909.460938"/>
     <use xlink:href="#DejaVuSans-65" x="972.9375"/>
     <use xlink:href="#DejaVuSans-67" x="1034.460938"/>
     <use xlink:href="#DejaVuSans-69" x="1097.9375"/>
     <use xlink:href="#DejaVuSans-6e" x="1125.720703"/>
     <use xlink:href="#DejaVuSans-73" x="1189.099609"/>
    </g>
    <!-- rising after quetiapine -->
    <g transform="translate(640.802812 110.637031) scale(0.1 -0.1)">
     <use xlink:href="#DejaVuSans-72"/>
     <use xlink:href="#DejaVuSans-69" x="41.113281"/>
     <use xlink:href="#DejaVuSans-73" x="68.896484"/>
     <use xlink:href="#DejaVuSans-69" x="120.996094"/>
     <use xlink:href="#DejaVuSans-6e" x="148.779297"/>
     <use xlink:href="#DejaVuSans-67" x="212.158203"/>
     <use xlink:href="#DejaVuSans-20" x="275.634766"/>
     <use xlink:href="#DejaVuSans-61" x="307.421875"/>
     <use xlink:href="#DejaVuSans-66" x="368.701172"/>
     <use xlink:href="#DejaVuSans-74" x="402.15625"/>
     <use xlink:href="#DejaVuSans-65" x="441.365234"/>
     <use xlink:href="#DejaVuSans-72" x="502.888672"/>
     <use xlink:href="#DejaVuSans-20" x="544.001953"/>
     <use xlink:href="#DejaVuSans-71" x="575.789062"/>
     <use xlink:href="#DejaVuSans-75" x="639.265625"/>
     <use xlink:href="#DejaVuSans-65" x="702.644531"/>
     <use xlink:href="#DejaVuSans-74" x="764.167969"/>
     <use xlink:href="#DejaVuSans-69" x="803.376953"/>
     <use xlink:href="#DejaVuSans-61" x="831.160156"/>
     <use xlink:href="#DejaVuSans-70" x="892.439453"/>
     <use xlink:href="#DejaVuSans-69" x="955.916016"/>
     <use xlink:href="#DejaVuSans-6e" x="983.699219"/>
     <use xlink:href="#DejaVuSans-65" x="1047.078125"/>
    </g>
   </g>
   <g id="patch_17">
    <path d="M 752.062347 232.491468 
Q 752.062347 225.889484 752.062347 219.2875 
" style="fill: none; stroke: #000000; stroke-width: 0.8; stroke-linecap: round"/>
   </g>
   <g id="text_16">
    <g id="patch_18">
     <path d="M 701.084222 249.571563 
L 803.040472 249.571563 
Q 806.540472 249.571563 806.540472 246.071563 
L 806.540472 236.393438 
Q 806.540472 232.893438 803.040472 232.893438 
L 701.084222 232.893438 
Q 697.584222 232.893438 697.584222 236.393438 
L 697.584222 246.071563 
Q 697.584222 249.571563 701.084222 249.571563 
z
" style="fill: #ffffff; stroke: #000000; stroke-width: 0.8; stroke-linejoin: miter"/>
    </g>
    <!-- Fast end ~72 h total -->
    <g transform="translate(701.084222 243.991875) scale(0.1 -0.1)">
     <defs>
      <path id="DejaVuSans-7e" d="M 4684 2553 
L 4684 1997 
Q 4356 1750 4076 1644 
Q 3797 1538 3494 1538 
Q 3150 1538 2694 1722 
Q 2659 1734 2644 1741 
Q 2622 1750 2575 1766 
Q 2091 1959 1797 1959 
Q 1522 1959 1253 1839 
Q 984 1719 678 1459 
L 678 2016 
Q 1006 2263 1286 2370 
Q 1566 2478 1869 2478 
Q 2213 2478 2672 2291 
Q 2703 2278 2719 2272 
Q 2744 2263 2788 2247 
Q 3272 2053 3566 2053 
Q 3834 2053 4098 2172 
Q 4363 2291 4684 2553 
z
" transform="scale(0.015625)"/>
     </defs>
     <use xlink:href="#DejaVuSans-46"/>
     <use xlink:href="#DejaVuSans-61" x="48.394531"/>
     <use xlink:href="#DejaVuSans-73" x="109.673828"/>
     <use xlink:href="#DejaVuSans-74" x="161.773438"/>
     <use xlink:href="#DejaVuSans-20" x="200.982422"/>
     <use xlink:href="#DejaVuSans-65" x="232.769531"/>
     <use xlink:href="#DejaVuSans-6e" x="294.292969"/>
     <use xlink:href="#DejaVuSans-64" x="357.671875"/>
     <use xlink:href="#DejaVuSans-20" x="421.148438"/>
     <use xlink:href="#DejaVuSans-7e" x="452.935547"/>
     <use xlink:href="#DejaVuSans-37" x="536.724609"/>
     <use xlink:href="#DejaVuSans-32" x="600.347656"/>
     <use xlink:href="#DejaVuSans-20" x="663.970703"/>
     <use xlink:href="#DejaVuSans-68" x="695.757812"/>
     <use xlink:href="#DejaVuSans-20" x="759.136719"/>
     <use xlink:href="#DejaVuSans-74" x="790.923828"/>
     <use xlink:href="#DejaVuSans-6f" x="830.132812"/>
     <use xlink:href="#DejaVuSans-74" x="891.314453"/>
     <use xlink:href="#DejaVuSans-61" x="930.523438"/>
     <use xlink:href="#DejaVuSans-6c" x="991.802734"/>
    </g>
   </g>
   <g id="patch_19">
    <path d="M 761.367321 116.587293 
Q 761.367321 120.389897 761.367321 124.1925 
" style="fill: none; stroke: #000000; stroke-width: 0.8; stroke-linecap: round"/>
   </g>
   <g id="text_17">
    <g id="patch_20">
     <path d="M 686.495446 116.185469 
L 836.239196 116.185469 
Q 839.739196 116.185469 839.739196 112.685469 
L 839.739196 91.809531 
Q 839.739196 88.309531 836.239196 88.309531 
L 686.495446 88.309531 
Q 682.995446 88.309531 682.995446 91.809531 
L 682.995446 112.685469 
Q 682.995446 116.185469 686.495446 116.185469 
z
" style="fill: #ffffff; stroke: #000000; stroke-width: 0.8; stroke-linejoin: miter"/>
    </g>
    <!-- Refeed (½ cup granola) Acute -->
    <g transform="translate(686.495446 99.407969) scale(0.1 -0.1)">
     <defs>
      <path id="DejaVuSans-52" d="M 2841 2188 
Q 3044 2119 3236 1894 
Q 3428 1669 3622 1275 
L 4263 0 
L 3584 0 
L 2988 1197 
Q 2756 1666 2539 1819 
Q 2322 1972 1947 1972 
L 1259 1972 
L 1259 0 
L 628 0 
L 628 4666 
L 2053 4666 
Q 2853 4666 3247 4331 
Q 3641 3997 3641 3322 
Q 3641 2881 3436 2590 
Q 3231 2300 2841 2188 
z
M 1259 4147 
L 1259 2491 
L 2053 2491 
Q 2509 2491 2742 2702 
Q 2975 2913 2975 3322 
Q 2975 3731 2742 3939 
Q 2509 4147 2053 4147 
L 1259 4147 
z
" transform="scale(0.015625)"/>
      <path id="DejaVuSans-28" d="M 1984 4856 
Q 1566 4138 1362 3434 
Q 1159 2731 1159 2009 
Q 1159 1288 1364 580 
Q 1569 -128 1984 -844 
L 1484 -844 
Q 1016 -109 783 600 
Q 550 1309 550 2009 
Q 550 2706 781 3412 
Q 1013 4119 1484 4856 
L 1984 4856 
z
" transform="scale(0.015625)"/>
      <path id="DejaVuSans-bd" d="M 488 2431 
L 1125 2431 
L 1125 4341 
L 428 4213 
L 428 4575 
L 1147 4697 
L 1575 4697 
L 1575 2431 
L 2216 2431 
L 2216 2088 
L 488 2088 
L 488 2431 
z
M 4472 356 
L 5797 356 
L 5797 0 
L 3928 0 
L 3928 343 
Q 4034 440 4231 615 
Q 5306 1568 5306 1862 
Q 5306 2068 5143 2194 
Q 4981 2321 4716 2321 
Q 4553 2321 4362 2266 
Q 4172 2212 3947 2103 
L 3947 2487 
Q 4188 2575 4395 2618 
Q 4603 2662 4781 2662 
Q 5234 2662 5506 2456 
Q 5778 2250 5778 1912 
Q 5778 1478 4744 590 
Q 4569 440 4472 356 
z
M 4306 4750 
L 4806 4750 
L 1894 -91 
L 1394 -91 
L 4306 4750 
z
" transform="scale(0.015625)"/>
      <path id="DejaVuSans-29" d="M 513 4856 
L 1013 4856 
Q 1481 4119 1714 3412 
Q 1947 2706 1947 2009 
Q 1947 1309 1714 600 
Q 1481 -109 1013 -844 
L 513 -844 
Q 928 -128 1133 580 
Q 1338 1288 1338 2009 
Q 1338 2731 1133 3434 
Q 928 4138 513 4856 
z
" transform="scale(0.015625)"/>
      <path id="DejaVuSans-41" d="M 2188 4044 
L 1331 1722 
L 3047 1722 
L 2188 4044 
z
M 1831 4666 
L 2547 4666 
L 4325 0 
L 3669 0 
L 3244 1197 
L 1141 1197 
L 716 0 
L 50 0 
L 1831 4666 
z
" transform="scale(0.015625)"/>
     </defs>
     <use xlink:href="#DejaVuSans-52"/>
     <use xlink:href="#DejaVuSans-65" x="64.982422"/>
     <use xlink:href="#DejaVuSans-66" x="126.505859"/>
     <use xlink:href="#DejaVuSans-65" x="161.710938"/>
     <use xlink:href="#DejaVuSans-65" x="223.234375"/>
     <use xlink:href="#DejaVuSans-64" x="284.757812"/>
     <use xlink:href="#DejaVuSans-20" x="348.234375"/>
     <use xlink:href="#DejaVuSans-28" x="380.021484"/>
     <use xlink:href="#DejaVuSans-bd" x="419.035156"/>
     <use xlink:href="#DejaVuSans-20" x="515.958984"/>
     <use xlink:href="#DejaVuSans-63" x="547.746094"/>
     <use xlink:href="#DejaVuSans-75" x="602.726562"/>
     <use xlink:href="#DejaVuSans-70" x="666.105469"/>
     <use xlink:href="#DejaVuSans-20" x="729.582031"/>
     <use xlink:href="#DejaVuSans-67" x="761.369141"/>
     <use xlink:href="#DejaVuSans-72" x="824.845703"/>
     <use xlink:href="#DejaVuSans-61" x="865.958984"/>
     <use xlink:href="#DejaVuSans-6e" x="927.238281"/>
     <use xlink:href="#DejaVuSans-6f" x="990.617188"/>
     <use xlink:href="#DejaVuSans-6c" x="1051.798828"/>
     <use xlink:href="#DejaVuSans-61" x="1079.582031"/>
     <use xlink:href="#DejaVuSans-29" x="1140.861328"/>
     <use xlink:href="#DejaVuSans-20" x="1179.875"/>
     <use xlink:href="#DejaVuSans-41" x="1211.662109"/>
     <use xlink:href="#DejaVuSans-63" x="1278.320312"/>
     <use xlink:href="#DejaVuSans-75" x="1333.300781"/>
     <use xlink:href="#DejaVuSans-74" x="1396.679688"/>
     <use xlink:href="#DejaVuSans-65" x="1435.888672"/>
    </g>
    <!-- migraine onset -->
    <g transform="translate(723.721228 110.605781) scale(0.1 -0.1)">
     <use xlink:href="#DejaVuSans-6d"/>
     <use xlink:href="#DejaVuSans-69" x="97.412109"/>
     <use xlink:href="#DejaVuSans-67" x="125.195312"/>
     <use xlink:href="#DejaVuSans-72" x="188.671875"/>
     <use xlink:href="#DejaVuSans-61" x="229.785156"/>
     <use xlink:href="#DejaVuSans-69" x="291.064453"/>
     <use xlink:href="#DejaVuSans-6e" x="318.847656"/>
     <use xlink:href="#DejaVuSans-65" x="382.226562"/>
     <use xlink:href="#DejaVuSans-20" x="443.75"/>
     <use xlink:href="#DejaVuSans-6f" x="475.537109"/>
     <use xlink:href="#DejaVuSans-6e" x="536.71875"/>
     <use xlink:href="#DejaVuSans-73" x="600.097656"/>
     <use xlink:href="#DejaVuSans-65" x="652.197266"/>
     <use xlink:href="#DejaVuSans-74" x="713.720703"/>
    </g>
   </g>
   <g id="patch_21">
    <path d="M 779.97727 226.892707 
Q 779.97727 223.090103 779.97727 219.2875 
" style="fill: none; stroke: #000000; stroke-width: 0.8; stroke-linecap: round"/>
   </g>
   <g id="text_18">
    <g id="patch_22">
     <path d="M 713.434302 255.170469 
L 846.520239 255.170469 
Q 850.020239 255.170469 850.020239 251.670469 
L 850.020239 230.794531 
Q 850.020239 227.294531 846.520239 227.294531 
L 713.434302 227.294531 
Q 709.934302 227.294531 709.934302 230.794531 
L 709.934302 251.670469 
Q 709.934302 255.170469 713.434302 255.170469 
z
" style="fill: #ffffff; stroke: #000000; stroke-width: 0.8; stroke-linejoin: miter"/>
    </g>
    <!-- Post-fast abdominal pain -->
    <g transform="translate(717.999145 238.392969) scale(0.1 -0.1)">
     <use xlink:href="#DejaVuSans-50"/>
     <use xlink:href="#DejaVuSans-6f" x="56.677734"/>
     <use xlink:href="#DejaVuSans-73" x="117.859375"/>
     <use xlink:href="#DejaVuSans-74" x="169.958984"/>
     <use xlink:href="#DejaVuSans-2d" x="209.167969"/>
     <use xlink:href="#DejaVuSans-66" x="245.251953"/>
     <use xlink:href="#DejaVuSans-61" x="280.457031"/>
     <use xlink:href="#DejaVuSans-73" x="341.736328"/>
     <use xlink:href="#DejaVuSans-74" x="393.835938"/>
     <use xlink:href="#DejaVuSans-20" x="433.044922"/>
     <use xlink:href="#DejaVuSans-61" x="464.832031"/>
     <use xlink:href="#DejaVuSans-62" x="526.111328"/>
     <use xlink:href="#DejaVuSans-64" x="589.587891"/>
     <use xlink:href="#DejaVuSans-6f" x="653.064453"/>
     <use xlink:href="#DejaVuSans-6d" x="714.246094"/>
     <use xlink:href="#DejaVuSans-69" x="811.658203"/>
     <use xlink:href="#DejaVuSans-6e" x="839.441406"/>
     <use xlink:href="#DejaVuSans-61" x="902.820312"/>
     <use xlink:href="#DejaVuSans-6c" x="964.099609"/>
     <use xlink:href="#DejaVuSans-20" x="991.882812"/>
     <use xlink:href="#DejaVuSans-70" x="1023.669922"/>
     <use xlink:href="#DejaVuSans-61" x="1087.146484"/>
     <use xlink:href="#DejaVuSans-69" x="1148.425781"/>
     <use xlink:href="#DejaVuSans-6e" x="1176.208984"/>
    </g>
    <!-- Persistent through the day -->
    <g transform="translate(713.434302 249.590781) scale(0.1 -0.1)">
     <use xlink:href="#DejaVuSans-50"/>
     <use xlink:href="#DejaVuSans-65" x="56.677734"/>
     <use xlink:href="#DejaVuSans-72" x="118.201172"/>
     <use xlink:href="#DejaVuSans-73" x="159.314453"/>
     <use xlink:href="#DejaVuSans-69" x="211.414062"/>
     <use xlink:href="#DejaVuSans-73" x="239.197266"/>
     <use xlink:href="#DejaVuSans-74" x="291.296875"/>
     <use xlink:href="#DejaVuSans-65" x="330.505859"/>
     <use xlink:href="#DejaVuSans-6e" x="392.029297"/>
     <use xlink:href="#DejaVuSans-74" x="455.408203"/>
     <use xlink:href="#DejaVuSans-20" x="494.617188"/>
     <use xlink:href="#DejaVuSans-74" x="526.404297"/>
     <use xlink:href="#DejaVuSans-68" x="565.613281"/>
     <use xlink:href="#DejaVuSans-72" x="628.992188"/>
     <use xlink:href="#DejaVuSans-6f" x="667.855469"/>
     <use xlink:href="#DejaVuSans-75" x="729.037109"/>
     <use xlink:href="#DejaVuSans-67" x="792.416016"/>
     <use xlink:href="#DejaVuSans-68" x="855.892578"/>
     <use xlink:href="#DejaVuSans-20" x="919.271484"/>
     <use xlink:href="#DejaVuSans-74" x="951.058594"/>
     <use xlink:href="#DejaVuSans-68" x="990.267578"/>
     <use xlink:href="#DejaVuSans-65" x="1053.646484"/>
     <use xlink:href="#DejaVuSans-20" x="1115.169922"/>
     <use xlink:href="#DejaVuSans-64" x="1146.957031"/>
     <use xlink:href="#DejaVuSans-61" x="1210.433594"/>
     <use xlink:href="#DejaVuSans-79" x="1271.712891"/>
    </g>
   </g>
   <g id="text_19">
    <!-- 72-Hour Fast Timeline with Seroquel-Linked Ketosis Shift -->
    <g transform="translate(266.589777 19.44) scale(0.12 -0.12)">
     <defs>
      <path id="DejaVuSans-54" d="M -19 4666 
L 3928 4666 
L 3928 4134 
L 2272 4134 
L 2272 0 
L 1638 0 
L 1638 4134 
L -19 4134 
L -19 4666 
z
" transform="scale(0.015625)"/>
      <path id="DejaVuSans-4c" d="M 628 4666 
L 1259 4666 
L 1259 531 
L 3531 531 
L 3531 0 
L 628 0 
L 628 4666 
z
" transform="scale(0.015625)"/>
     </defs>
     <use xlink:href="#DejaVuSans-37"/>
     <use xlink:href="#DejaVuSans-32" x="63.623047"/>
     <use xlink:href="#DejaVuSans-2d" x="127.246094"/>
     <use xlink:href="#DejaVuSans-48" x="163.330078"/>
     <use xlink:href="#DejaVuSans-6f" x="238.525391"/>
     <use xlink:href="#DejaVuSans-75" x="299.707031"/>
     <use xlink:href="#DejaVuSans-72" x="363.085938"/>
     <use xlink:href="#DejaVuSans-20" x="404.199219"/>
     <use xlink:href="#DejaVuSans-46" x="435.986328"/>
     <use xlink:href="#DejaVuSans-61" x="484.380859"/>
     <use xlink:href="#DejaVuSans-73" x="545.660156"/>
     <use xlink:href="#DejaVuSans-74" x="597.759766"/>
     <use xlink:href="#DejaVuSans-20" x="636.96875"/>
     <use xlink:href="#DejaVuSans-54" x="668.755859"/>
     <use xlink:href="#DejaVuSans-69" x="726.714844"/>
     <use xlink:href="#DejaVuSans-6d" x="754.498047"/>
     <use xlink:href="#DejaVuSans-65" x="851.910156"/>
     <use xlink:href="#DejaVuSans-6c" x="913.433594"/>
     <use xlink:href="#DejaVuSans-69" x="941.216797"/>
     <use xlink:href="#DejaVuSans-6e" x="969"/>
     <use xlink:href="#DejaVuSans-65" x="1032.378906"/>
     <use xlink:href="#DejaVuSans-20" x="1093.902344"/>
     <use xlink:href="#DejaVuSans-77" x="1125.689453"/>
     <use xlink:href="#DejaVuSans-69" x="1207.476562"/>
     <use xlink:href="#DejaVuSans-74" x="1235.259766"/>
     <use xlink:href="#DejaVuSans-68" x="1274.46875"/>
     <use xlink:href="#DejaVuSans-20" x="1337.847656"/>
     <use xlink:href="#DejaVuSans-53" x="1369.634766"/>
     <use xlink:href="#DejaVuSans-65" x="1433.111328"/>
     <use xlink:href="#DejaVuSans-72" x="1494.634766"/>
     <use xlink:href="#DejaVuSans-6f" x="1533.498047"/>
     <use xlink:href="#DejaVuSans-71" x="1594.679688"/>
     <use xlink:href="#DejaVuSans-75" x="1658.15625"/>
     <use xlink:href="#DejaVuSans-65" x="1721.535156"/>
     <use xlink:href="#DejaVuSans-6c" x="1783.058594"/>
     <use xlink:href="#DejaVuSans-2d" x="1810.841797"/>
     <use xlink:href="#DejaVuSans-4c" x="1846.925781"/>
     <use xlink:href="#DejaVuSans-69" x="1902.638672"/>
     <use xlink:href="#DejaVuSans-6e" x="1930.421875"/>
     <use xlink:href="#DejaVuSans-6b" x="1993.800781"/>
     <use xlink:href="#DejaVuSans-65" x="2048.085938"/>
     <use xlink:href="#DejaVuSans-64" x="2109.609375"/>
     <use xlink:href="#DejaVuSans-20" x="2173.085938"/>
     <use xlink:href="#DejaVuSans-4b" x="2204.873047"/>
     <use xlink:href="#DejaVuSans-65" x="2265.449219"/>
     <use xlink:href="#DejaVuSans-74" x="2326.972656"/>
     <use xlink:href="#DejaVuSans-6f" x="2366.181641"/>
     <use xlink:href="#DejaVuSans-73" x="2427.363281"/>
     <use xlink:href="#DejaVuSans-69" x="2479.462891"/>
     <use xlink:href="#DejaVuSans-73" x="2507.246094"/>
     <use xlink:href="#DejaVuSans-20" x="2559.345703"/>
     <use xlink:href="#DejaVuSans-53" x="2591.132812"/>
     <use xlink:href="#DejaVuSans-68" x="2654.609375"/>
     <use xlink:href="#DejaVuSans-69" x="2717.988281"/>
     <use xlink:href="#DejaVuSans-66" x="2745.771484"/>
     <use xlink:href="#DejaVuSans-74" x="2779.226562"/>
    </g>
   </g>
  </g>
 </g>
 <defs>
  <clipPath id="p83a66a54a7">
   <rect x="44.884286" y="25.44" width="781.617857" height="292.6"/>
  </clipPath>
 </defs>
</svg>
